<?xml version="1.0" encoding="UTF-8" standalone="no"?>
<!DOCTYPE svg PUBLIC "-//W3C//DTD SVG 1.1//EN" "http://www.w3.org/Graphics/SVG/1.1/DTD/svg11.dtd">
<svg version="1.1" xmlns="http://www.w3.org/2000/svg" xmlns:xlink="http://www.w3.org/1999/xlink" preserveAspectRatio="xMidYMid meet" viewBox="0 0 640 640" width="640" height="640"><defs><path d="M158.81 341.43L159.11 341.63L159.32 341.78L159.52 341.94L159.73 342.11L159.93 342.29L160.13 342.48L160.32 342.67L160.52 342.87L160.71 343.08L160.9 343.3L161.09 343.52L161.27 343.75L161.45 343.99L161.63 344.23L161.8 344.48L161.97 344.73L162.14 344.99L162.3 345.26L162.46 345.52L162.62 345.8L162.77 346.07L162.91 346.35L163.06 346.64L163.19 346.92L163.32 347.21L163.45 347.5L163.57 347.8L163.69 348.09L163.8 348.39L163.9 348.69L164 348.99L164.09 349.29L164.18 349.59L164.26 349.89L164.33 350.19L164.39 350.49L164.45 350.79L164.51 351.09L164.55 351.39L164.59 351.69L164.62 351.98L164.73 353.81L164.9 355.69L165.13 357.62L165.42 359.59L165.76 361.59L166.15 363.62L166.6 365.67L167.09 367.74L167.62 369.83L168.2 371.92L168.82 374.01L169.47 376.11L170.16 378.19L170.89 380.26L171.64 382.32L172.42 384.35L173.22 386.35L174.04 388.31L174.89 390.24L175.75 392.12L176.63 393.95L177.52 395.72L178.42 397.44L179.33 399.09L180.24 400.66L181.15 402.16L182.07 403.58L182.98 404.91L183.89 406.15L184.79 407.28L185.68 408.32L186.55 409.25L187.42 410.06L188.26 410.75L189.08 411.32L189.89 411.76L190.24 411.9L191.1 412.93L192.18 414.19L193.16 415.32L193.08 415.4L192.85 415.64L192.65 415.86L192.46 416.07L192.28 416.27L192.13 416.46L191.99 416.64L191.87 416.81L191.77 416.97L191.68 417.11L191.62 417.25L191.57 417.38L191.54 417.5L191.53 417.61L191.53 417.71L191.56 417.8L191.6 417.88L191.66 417.96L191.74 418.02L191.84 418.08L191.96 418.12L192.1 418.16L192.25 418.19L192.43 418.21L192.62 418.22L192.84 418.23L193.07 418.23L193.32 418.21L193.59 418.2L193.89 418.17L194.2 418.14L194.53 418.1L194.88 418.05L195.26 418L195.53 417.95L195.66 418.1L196.89 419.44L198.15 420.8L199.28 421.99L199.2 422.14L199.03 422.46L198.85 422.78L198.67 423.1L198.49 423.41L198.31 423.71L198.14 424L197.97 424.28L197.8 424.55L197.64 424.8L197.5 425.04L197.36 425.26L197.25 425.46L197.14 425.63L197.06 425.79L197 425.92L196.96 426.03L196.95 426.1L197.06 426.22L197.4 426.15L197.95 425.89L198.69 425.45L199.63 424.85L200.73 424.1L201.07 423.86L202.05 424.87L203.37 426.23L204.7 427.57L206.04 428.91L207.36 430.22L208.68 431.52L209.99 432.78L211.28 434.02L212.55 435.23L213.79 436.39L215 437.52L216.17 438.6L217.31 439.63L218.4 440.6L219.45 441.52L220.44 442.38L221.37 443.17L221.96 443.67L222.56 444.16L223.15 444.64L223.74 445.12L224.32 445.58L224.91 446.04L225.49 446.49L226.07 446.93L226.64 447.36L227.2 447.78L227.76 448.19L228.31 448.59L228.86 448.97L229.4 449.35L229.93 449.71L230.45 450.07L230.96 450.41L231.46 450.73L231.94 451.05L232.42 451.35L232.89 451.63L233.34 451.91L233.77 452.17L234.2 452.41L234.61 452.64L235 452.85L235.38 453.05L235.74 453.23L236.09 453.4L236.41 453.55L236.72 453.68L237.01 453.8L237.28 453.9L237.53 453.98L237.76 454.04L237.97 454.09L238.15 454.11L238.31 454.12L238.45 454.11L238.57 454.07L238.67 454.02L238.78 453.96L238.88 453.92L238.99 453.89L239.1 453.86L239.21 453.84L239.32 453.83L239.43 453.83L239.54 453.83L239.65 453.84L239.77 453.86L239.88 453.89L240 453.92L240.11 453.96L240.23 454L240.34 454.05L240.46 454.11L240.57 454.17L240.69 454.24L240.8 454.32L240.92 454.4L241.04 454.49L241.15 454.58L241.27 454.68L241.38 454.78L241.5 454.89L241.61 455L241.73 455.12L241.84 455.24L241.95 455.37L242.07 455.5L242.18 455.64L242.29 455.78L242.4 455.93L242.51 456.07L242.62 456.23L242.73 456.38L242.83 456.54L242.94 456.7L243.04 456.87L243.13 457.04L243.23 457.22L243.34 457.4L243.47 457.58L243.61 457.77L243.77 457.96L243.94 458.16L244.12 458.35L244.32 458.56L244.52 458.76L244.74 458.96L244.97 459.17L245.21 459.38L245.46 459.59L245.72 459.8L246 460.01L246.28 460.22L246.56 460.44L246.86 460.65L247.17 460.86L247.48 461.07L247.8 461.27L248.13 461.48L248.46 461.68L248.8 461.89L249.15 462.09L249.5 462.28L249.86 462.47L250.22 462.66L250.59 462.85L250.96 463.03L251.33 463.21L251.7 463.38L252.08 463.55L252.46 463.71L252.85 463.86L253.23 464.01L253.62 464.16L254 464.29L254.39 464.42L254.78 464.57L255.18 464.72L255.58 464.88L255.98 465.03L256.39 465.19L256.81 465.36L257.23 465.52L257.65 465.69L258.07 465.85L258.49 466.02L258.92 466.19L259.34 466.37L259.77 466.54L260.19 466.72L260.61 466.89L261.03 467.07L261.45 467.25L261.87 467.42L262.28 467.6L262.69 467.78L263.09 467.96L263.49 468.14L263.89 468.31L264.27 468.49L264.65 468.67L265.03 468.84L265.39 469.02L265.75 469.19L266.1 469.37L266.43 469.54L266.76 469.71L267.08 469.87L267.39 470.04L267.68 470.2L267.97 470.37L268.24 470.53L268.49 470.68L268.74 470.84L268.97 470.99L269.18 471.14L270.51 471.9L272.03 472.65L273.72 473.38L275.59 474.09L277.61 474.78L279.78 475.45L282.1 476.09L284.55 476.72L287.14 477.32L289.84 477.89L292.66 478.44L295.57 478.97L298.59 479.47L301.69 479.94L304.88 480.39L308.13 480.81L311.45 481.2L314.83 481.56L318.26 481.89L321.72 482.18L325.22 482.45L328.74 482.69L332.28 482.89L335.82 483.06L339.37 483.19L342.91 483.29L346.43 483.36L349.93 483.39L353.4 483.38L356.83 483.33L360.21 483.24L363.53 483.12L366.79 482.96L369.98 482.75L373.09 482.51L376.11 482.22L379.04 481.89L381.86 481.52L384.57 481.11L387.16 480.65L388.9 480.32L390.68 479.96L392.48 479.58L394.3 479.17L396.14 478.74L397.99 478.29L399.85 477.81L401.71 477.32L403.58 476.81L405.44 476.29L407.29 475.75L409.14 475.2L410.96 474.64L412.77 474.07L414.56 473.49L416.31 472.91L418.04 472.32L419.72 471.73L421.37 471.13L422.97 470.54L424.53 469.95L426.03 469.36L427.48 468.78L428.86 468.2L430.19 467.63L431.44 467.07L432.62 466.52L433.72 465.98L434.74 465.46L435.67 464.95L436.52 464.46L437.27 463.99L437.93 463.54L438.48 463.11L438.93 462.7L439.27 462.32L439.49 461.96L439.6 461.63L439.58 461.33L439.44 461.07L439.34 460.94L439.25 460.82L439.16 460.7L439.08 460.58L439.01 460.47L438.94 460.35L438.88 460.24L438.82 460.13L438.77 460.03L438.73 459.93L438.69 459.83L438.66 459.73L438.63 459.64L438.61 459.55L438.6 459.46L438.59 459.38L438.59 459.29L438.6 459.22L438.61 459.14L438.62 459.07L438.65 459.01L438.68 458.94L438.71 458.89L438.75 458.83L438.79 458.78L438.84 458.73L438.9 458.69L438.96 458.65L439.03 458.62L439.1 458.59L439.18 458.56L439.27 458.54L439.36 458.53L439.45 458.52L439.55 458.51L439.66 458.51L439.77 458.51L439.88 458.52L440 458.53L440.13 458.55L440.77 458.63L441.4 458.69L442.03 458.74L442.65 458.77L443.26 458.79L443.87 458.79L444.48 458.78L445.09 458.74L445.69 458.69L446.3 458.63L446.91 458.54L447.52 458.44L448.13 458.32L448.75 458.17L449.37 458.01L450 457.82L450.63 457.62L451.28 457.39L451.93 457.14L452.6 456.87L453.28 456.58L453.96 456.26L454.67 455.92L455.39 455.55L456.12 455.16L456.87 454.74L457.64 454.3L458.42 453.83L459.23 453.33L460.06 452.81L460.91 452.26L461.78 451.68L462.68 451.07L463.6 450.43L464.55 449.76L465.52 449.06L466.52 448.34L467.55 447.58L468.62 446.79L469.71 445.96L470.38 445.44L471.04 444.91L471.69 444.39L472.34 443.87L472.97 443.35L473.6 442.83L474.22 442.32L474.83 441.81L475.42 441.3L476.01 440.8L476.58 440.3L477.15 439.81L477.7 439.33L478.23 438.85L478.76 438.38L479.26 437.91L479.76 437.45L480.24 437.01L480.7 436.57L481.15 436.14L481.58 435.72L481.99 435.31L482.38 434.91L482.76 434.52L483.12 434.15L483.46 433.79L483.78 433.44L484.07 433.1L484.35 432.78L484.61 432.47L484.84 432.18L485.05 431.9L485.24 431.64L485.41 431.39L485.55 431.17L485.67 430.96L485.76 430.76L485.82 430.59L485.86 430.43L485.88 430.3L485.86 430.16L485.82 429.98L485.76 429.77L485.68 429.54L485.58 429.27L485.46 428.99L485.32 428.68L485.17 428.36L485.01 428.01L484.84 427.66L484.67 427.29L484.48 426.92L484.3 426.53L484.11 426.15L483.92 425.76L483.73 425.37L483.55 424.98L483.37 424.6L483.2 424.23L483.04 423.87L482.89 423.52L482.76 423.18L482.64 422.86L482.53 422.57L482.45 422.29L482.39 422.04L482.35 421.82L482.34 421.62L482.35 421.46L482.39 421.33L482.47 421.24L482.57 421.19L482.72 421.18L482.89 421.21L483.11 421.29L483.37 421.42L483.67 421.6L484.01 421.83L484.41 422.12L484.84 422.47L485.31 422.84L485.77 423.21L486.22 423.56L486.67 423.91L487.11 424.25L487.55 424.57L487.98 424.89L488.4 425.2L488.82 425.5L489.23 425.79L489.63 426.07L490.03 426.33L490.41 426.59L490.79 426.84L491.16 427.07L491.51 427.29L491.86 427.5L492.2 427.7L492.53 427.89L492.84 428.06L493.15 428.22L493.44 428.37L493.72 428.51L493.98 428.63L494.24 428.74L494.48 428.83L494.69 428.91L493.68 430.34L492.55 431.88L491.39 433.4L490.2 434.91L488.97 436.39L487.72 437.86L486.44 439.31L485.12 440.73L483.78 442.14L482.4 443.53L481 444.9L479.57 446.25L478.1 447.58L476.61 448.89L475.08 450.18L473.53 451.45L471.95 452.7L470.33 453.93L468.69 455.15L467.01 456.34L465.31 457.51L463.57 458.67L461.81 459.8L460.01 460.92L458.19 462.02L456.33 463.09L454.45 464.15L452.53 465.19L450.59 466.21L448.61 467.21L446.6 468.18L444.57 469.14L442.5 470.09L440.41 471.01L438.28 471.91L436.12 472.79L433.94 473.65L430.35 475.01L426.77 476.31L423.2 477.56L419.62 478.75L416.06 479.88L412.49 480.96L408.93 481.98L405.36 482.95L401.81 483.86L398.25 484.72L394.7 485.51L391.15 486.26L387.6 486.95L384.06 487.58L380.51 488.15L376.97 488.67L373.43 489.14L369.9 489.54L366.36 489.9L362.82 490.19L359.29 490.43L355.76 490.61L352.23 490.74L348.7 490.81L345.17 490.83L341.64 490.78L338.11 490.69L334.58 490.53L331.05 490.32L327.53 490.06L324 489.73L320.47 489.35L316.94 488.92L313.41 488.42L309.88 487.88L306.35 487.27L302.82 486.61L299.29 485.89L295.76 485.11L292.23 484.28L288.54 483.37L284.88 482.38L281.23 481.32L277.59 480.19L273.98 479L270.39 477.74L266.83 476.42L263.29 475.03L259.78 473.58L256.29 472.07L252.84 470.5L249.43 468.87L246.04 467.18L242.7 465.44L239.4 463.65L236.13 461.8L232.91 459.9L229.73 457.95L226.6 455.95L223.52 453.9L220.49 451.8L217.51 449.66L214.58 447.48L211.72 445.25L208.9 442.98L206.15 440.68L203.46 438.33L200.83 435.94L198.27 433.52L195.78 431.06L193.35 428.57L191 426.05L188.72 423.5L186.51 420.91L184.38 418.3L182.32 415.66L180.35 412.99L178.46 410.3L176.66 407.58L174.94 404.85L173.9 403.03L172.89 401.1L171.9 399.03L170.93 396.84L169.99 394.52L169.07 392.07L168.18 389.5L167.31 386.8L166.47 383.97L165.65 381.02L164.85 377.94L164.08 374.73L163.33 371.39L162.61 367.93L161.91 364.34L161.23 360.63L160.58 356.79L159.95 352.82L159.35 348.72L158.77 344.5L158.34 341.1L158.53 341.23L158.81 341.43ZM170.04 123.7L172.39 123.88L174.76 123.99L177.14 124.06L179.52 124.08L181.92 124.06L184.32 124L186.72 123.91L189.12 123.79L191.52 123.66L193.91 123.51L196.29 123.35L198.66 123.18L201.02 123.02L203.36 122.87L205.68 122.73L207.97 122.6L210.25 122.5L212.49 122.43L214.71 122.39L216.89 122.39L219.04 122.43L221.14 122.53L223.21 122.68L225.24 122.89L227.21 123.17L229.14 123.52L231.02 123.94L232.84 124.45L234.61 125.05L236.31 125.74L237.96 126.53L239.54 127.42L241.05 128.43L242.49 129.55L243.86 130.78L245.15 132.15L246.36 133.64L247.49 135.27L248.54 137.05L249.01 138L249.43 139.06L249.8 140.23L250.13 141.5L250.42 142.88L250.67 144.36L250.88 145.95L251.05 147.64L251.19 149.44L251.3 151.34L251.38 153.36L251.43 155.47L251.45 157.7L251.44 160.02L251.42 162.46L251.37 165L251.3 167.65L251.21 170.4L251.11 173.26L250.99 176.23L250.87 179.3L250.73 182.48L250.58 185.77L250.43 189.16L250.27 192.66L250.1 196.27L249.94 199.98L249.78 203.8L249.62 207.73L249.46 211.76L249.31 215.9L249.17 220.15L249.04 224.51L248.92 228.97L248.81 233.54L248.72 238.22L248.65 243L248.59 247.89L248.56 252.89L248.54 258L248.56 261.37L248.58 264.7L248.58 267.97L248.58 271.18L248.57 274.34L248.56 277.44L248.54 280.48L248.51 283.46L248.48 286.37L248.45 289.22L248.41 292L248.37 294.72L248.33 297.36L248.29 299.93L248.24 302.43L248.2 304.85L248.15 307.19L248.11 309.45L248.07 311.63L248.03 313.73L247.99 315.74L247.96 317.67L247.93 319.51L247.9 321.26L247.88 322.91L247.86 324.47L247.85 325.94L247.85 327.31L247.85 328.58L247.87 329.74L247.89 330.81L247.92 331.77L247.96 332.62L248 333.37L248.06 334.01L248.13 334.53L248.22 334.94L248.31 335.24L248.42 335.42L248.54 335.48L248.7 335.48L248.86 335.49L249.02 335.51L249.19 335.53L249.35 335.56L249.52 335.59L249.69 335.63L249.86 335.67L250.02 335.72L250.19 335.77L250.35 335.82L250.51 335.87L250.67 335.93L250.82 335.98L250.97 336.04L251.12 336.1L251.26 336.15L251.39 336.21L251.52 336.26L251.64 336.32L251.27 336.16L250.93 336.07L250.63 336.05L250.37 336.09L250.13 336.19L249.93 336.35L249.76 336.57L249.62 336.85L249.52 337.18L249.44 337.57L249.4 338L249.38 338.49L249.4 339.03L249.44 339.61L249.52 340.24L249.62 340.91L249.75 341.63L249.91 342.38L250.09 343.18L250.31 344.01L250.55 344.88L250.81 345.78L251.1 346.71L251.42 347.68L251.76 348.67L252.12 349.69L252.51 350.74L252.92 351.81L253.36 352.9L253.82 354.02L254.3 355.15L254.8 356.3L255.32 357.47L255.87 358.66L256.43 359.85L257.02 361.06L257.62 362.27L258.25 363.5L258.89 364.73L259.55 365.97L260.67 368.02L261.86 370.05L263.11 372.03L264.44 373.97L265.83 375.88L267.28 377.74L268.79 379.56L270.37 381.34L272.01 383.08L273.7 384.77L275.45 386.42L277.26 388.03L279.12 389.58L281.04 391.1L283 392.56L285.02 393.98L287.09 395.34L289.2 396.66L291.36 397.93L293.56 399.15L295.81 400.31L298.09 401.42L300.42 402.48L302.79 403.49L305.2 404.43L307.64 405.33L310.11 406.16L312.62 406.94L315.17 407.67L317.74 408.33L320.34 408.93L322.97 409.48L325.63 409.96L328.31 410.38L331.02 410.74L333.74 411.03L336.49 411.26L339.26 411.43L342.05 411.53L344.85 411.56L347 411.57L349.12 411.54L351.21 411.49L353.28 411.41L355.31 411.3L357.32 411.16L359.31 410.98L361.27 410.78L363.21 410.54L365.13 410.27L367.03 409.97L368.92 409.63L370.78 409.26L372.63 408.85L374.47 408.41L376.3 407.93L378.11 407.41L379.92 406.86L381.72 406.28L383.51 405.65L385.29 404.99L387.07 404.28L388.84 403.54L390.62 402.76L392.39 401.94L394.17 401.07L395.94 400.17L397.72 399.22L399.51 398.23L401.3 397.2L403.1 396.13L404.91 395.01L406.72 393.85L408.55 392.64L410.39 391.39L412.25 390.09L414.12 388.74L416.01 387.35L417.91 385.91L419.84 384.43L420.2 384.15L420.57 383.87L420.93 383.6L421.3 383.32L421.67 383.04L422.04 382.77L422.41 382.49L422.78 382.22L423.16 381.94L423.53 381.67L423.9 381.39L424.28 381.12L424.66 380.85L425.03 380.58L425.41 380.3L425.79 380.03L426.16 379.77L426.54 379.5L426.92 379.23L427.29 378.96L427.67 378.7L428.05 378.43L428.42 378.17L428.8 377.91L429.18 377.65L429.55 377.39L429.93 377.13L430.3 376.88L430.68 376.62L431.05 376.37L431.42 376.12L431.79 375.87L432.16 375.62L432.53 375.38L432.9 375.13L433.26 374.89L433.63 374.65L433.99 374.42L434.35 374.18L434.71 373.95L435.05 373.79L435.45 373.7L435.92 373.68L436.44 373.74L437.04 373.87L437.69 374.07L438.41 374.34L439.19 374.69L440.04 375.1L440.95 375.59L441.93 376.16L442.96 376.79L444.07 377.5L445.23 378.28L446.46 379.13L447.75 380.06L449.11 381.05L450.53 382.12L452.02 383.27L453.56 384.48L455.18 385.77L456.85 387.13L458.59 388.56L460.39 390.06L462.26 391.64L464.19 393.29L466.19 395.01L468.24 396.8L470.37 398.67L472.55 400.6L474.8 402.61L477.11 404.7L479.49 406.85L481.93 409.08L484.44 411.38L487 413.75L489.64 416.2L492.33 418.71L495.09 421.3L497.92 423.97L496.9 425.59L495.86 427.19L495.46 427.78L495.2 427.52L494.46 426.84L493.54 426.01L492.43 425.04L491.17 423.95L489.76 422.74L488.2 421.43L486.52 420.03L484.72 418.54L482.82 416.97L480.83 415.34L478.75 413.65L476.61 411.91L474.4 410.14L472.15 408.34L469.87 406.53L467.56 404.71L465.24 402.89L462.92 401.08L460.61 399.3L458.33 397.54L456.08 395.83L453.87 394.18L451.73 392.58L449.65 391.05L447.66 389.61L445.75 388.26L443.96 387.01L442.27 385.86L440.72 384.84L439.31 383.95L438.04 383.2L436.94 382.6L436.02 382.16L435.27 381.89L434.73 381.8L434.4 381.89L434.28 382.19L434.28 382.46L434.27 382.72L434.27 382.98L434.25 383.24L434.24 383.48L434.22 383.73L434.19 383.96L434.16 384.19L434.13 384.42L434.1 384.63L434.06 384.84L434.02 385.05L433.98 385.24L433.93 385.43L433.88 385.62L433.83 385.79L433.78 385.96L433.72 386.12L433.66 386.27L433.59 386.42L433.53 386.56L433.46 386.69L433.39 386.81L433.32 386.92L433.24 387.03L433.16 387.12L433.08 387.21L433 387.29L432.92 387.36L432.83 387.42L432.74 387.47L432.65 387.51L432.56 387.55L432.47 387.57L432.37 387.59L432.28 387.59L432.18 387.58L432.08 387.57L431.98 387.54L431.87 387.5L431.54 387.39L431.16 387.34L430.73 387.35L430.27 387.41L429.76 387.54L429.23 387.71L428.66 387.93L428.06 388.2L427.44 388.51L426.79 388.86L426.13 389.25L425.45 389.68L424.76 390.13L424.06 390.62L423.35 391.13L422.64 391.66L421.93 392.22L421.22 392.79L420.53 393.37L419.84 393.97L419.16 394.58L418.5 395.19L417.86 395.81L417.24 396.43L416.64 397.04L416.08 397.65L415.55 398.25L415.05 398.84L414.59 399.41L414.17 399.97L413.8 400.51L413.47 401.03L413.2 401.52L412.97 401.98L412.81 402.41L412.71 402.81L412.67 403.17L412.69 403.49L412.79 403.77L412.96 404.01L413.06 404.11L413.15 404.21L413.24 404.3L413.32 404.39L413.39 404.48L413.46 404.56L413.52 404.63L413.58 404.71L413.63 404.77L413.67 404.84L413.71 404.89L413.74 404.95L413.77 405L413.78 405.04L413.8 405.08L413.8 405.11L413.81 405.14L413.8 405.16L413.79 405.18L413.77 405.2L413.75 405.2L413.72 405.21L413.69 405.2L413.65 405.19L413.61 405.18L413.55 405.16L413.5 405.14L413.44 405.11L413.37 405.07L413.3 405.03L413.22 404.98L413.13 404.93L413.04 404.87L412.95 404.8L412.85 404.73L412.74 404.66L412.63 404.57L412.52 404.48L412.4 404.39L412.27 404.29L412.14 404.21L412 404.13L411.85 404.07L411.69 404.01L411.53 403.96L411.36 403.91L411.19 403.88L411.01 403.85L410.83 403.82L410.64 403.81L410.44 403.8L410.24 403.79L410.03 403.8L409.82 403.81L409.61 403.82L409.39 403.85L409.17 403.88L408.94 403.91L408.72 403.96L408.49 404.01L408.25 404.06L408.02 404.12L407.78 404.19L407.54 404.27L407.3 404.35L407.06 404.43L406.81 404.52L406.57 404.62L406.32 404.73L406.08 404.84L405.83 404.95L405.59 405.07L405.34 405.2L405.1 405.33L404.86 405.47L404.62 405.62L404.38 405.76L404.14 405.92L403.9 406.08L403.67 406.24L403.42 406.4L403.14 406.55L402.83 406.72L402.49 406.9L402.12 407.08L401.73 407.26L401.3 407.46L400.85 407.66L400.38 407.86L399.88 408.08L399.35 408.29L398.8 408.51L398.23 408.74L397.64 408.97L397.03 409.2L396.4 409.44L395.75 409.67L395.08 409.92L394.4 410.16L393.7 410.4L392.98 410.65L392.25 410.9L391.5 411.15L390.74 411.4L389.97 411.65L389.19 411.9L388.4 412.15L387.6 412.4L386.79 412.65L385.97 412.89L385.14 413.14L384.31 413.38L383.47 413.62L382.63 413.85L381.78 414.09L380.94 414.32L380.08 414.54L379.23 414.77L378.38 414.98L377.53 415.19L375.58 415.7L373.62 416.18L371.64 416.62L369.64 417.03L367.62 417.4L365.6 417.74L363.56 418.05L361.52 418.33L359.47 418.58L357.42 418.79L355.37 418.97L353.32 419.12L351.27 419.24L349.22 419.33L347.18 419.39L345.15 419.41L343.13 419.41L341.13 419.38L339.13 419.31L337.16 419.22L335.2 419.09L333.26 418.94L331.35 418.75L329.46 418.54L327.6 418.3L325.76 418.02L323.96 417.72L322.19 417.39L320.46 417.04L318.76 416.65L317.1 416.24L315.48 415.79L313.91 415.32L312.38 414.83L310.9 414.3L309.46 413.75L308.08 413.17L306.75 412.57L305.48 411.94L304.27 411.28L303.85 411.03L303.43 410.78L303.01 410.53L302.59 410.29L302.16 410.05L301.74 409.81L301.31 409.58L300.88 409.35L300.46 409.12L300.03 408.9L299.61 408.68L299.18 408.47L298.76 408.26L298.34 408.06L297.93 407.86L297.52 407.66L297.11 407.47L296.71 407.29L296.31 407.11L295.92 406.94L295.54 406.78L295.16 406.62L294.79 406.47L294.43 406.32L294.08 406.19L293.74 406.06L293.4 405.93L293.08 405.82L292.77 405.71L292.46 405.61L292.17 405.52L291.89 405.44L291.63 405.37L291.37 405.31L291.14 405.25L290.91 405.21L290.7 405.17L290.51 405.15L290.33 405.13L290.16 405.13L290 405.12L289.82 405.09L289.62 405.05L289.4 404.99L289.17 404.92L288.93 404.84L288.66 404.73L288.39 404.62L288.1 404.49L287.79 404.34L287.48 404.19L287.14 404.02L286.8 403.83L286.45 403.64L286.08 403.43L285.71 403.21L285.32 402.98L284.92 402.74L284.52 402.49L284.1 402.22L283.68 401.95L283.25 401.67L282.81 401.38L282.36 401.08L281.91 400.77L281.45 400.45L280.99 400.13L280.52 399.79L280.05 399.45L279.57 399.11L279.09 398.75L278.61 398.39L278.12 398.03L277.63 397.66L277.14 397.28L276.65 396.9L276.16 396.52L275.67 396.13L275.18 395.73L274.68 395.34L274.17 394.94L273.66 394.55L273.15 394.16L272.65 393.77L272.15 393.39L271.65 393.01L271.16 392.64L270.67 392.28L270.19 391.92L269.72 391.56L269.25 391.22L268.79 390.88L268.34 390.54L267.89 390.22L267.45 389.9L267.02 389.59L266.6 389.29L266.19 389L265.79 388.72L265.4 388.45L265.02 388.19L264.64 387.93L264.28 387.69L263.94 387.46L263.6 387.24L263.28 387.03L262.96 386.84L262.67 386.66L262.38 386.49L262.11 386.33L261.85 386.18L261.61 386.05L261.38 385.94L261.17 385.84L260.97 385.75L260.79 385.68L260.63 385.62L260.48 385.58L260.35 385.55L260.24 385.55L259.86 385.56L259.25 385.61L258.41 385.68L257.37 385.79L256.12 385.92L254.7 386.08L253.09 386.26L251.33 386.47L249.42 386.7L247.38 386.96L247.15 386.99L248.81 385.58L250.42 384.2L251.9 382.93L253.24 381.77L254.41 380.74L255.42 379.84L256.24 379.09L256.87 378.49L257.3 378.05L257.51 377.79L257.49 377.71L257.16 377.75L256.83 377.78L256.52 377.81L256.21 377.82L255.91 377.83L255.61 377.83L255.33 377.82L255.05 377.81L254.78 377.79L254.52 377.76L254.27 377.72L254.02 377.67L253.78 377.62L253.55 377.56L253.33 377.49L253.11 377.41L252.9 377.32L252.7 377.23L252.51 377.13L252.33 377.01L252.15 376.9L251.98 376.77L251.82 376.63L251.67 376.49L251.52 376.33L251.38 376.17L251.25 376L251.13 375.82L251.02 375.63L250.91 375.43L250.81 375.23L250.72 375.01L250.63 374.79L250.56 374.55L250.49 374.31L250.43 374.06L250.38 373.8L250.33 373.53L250.29 373.25L250.26 372.96L250.17 372.19L250.05 371.39L249.91 370.57L249.74 369.73L249.54 368.86L249.33 367.98L249.09 367.08L248.83 366.17L248.55 365.24L248.25 364.31L247.94 363.36L247.61 362.42L247.26 361.47L246.9 360.52L246.53 359.57L246.14 358.62L245.75 357.68L245.34 356.75L244.92 355.83L244.5 354.92L244.07 354.02L243.64 353.15L243.2 352.29L242.76 351.45L242.32 350.64L241.87 349.85L241.43 349.09L240.98 348.36L240.54 347.66L240.11 347L239.67 346.37L239.25 345.78L238.83 345.24L238.41 344.74L238.01 344.28L237.61 343.87L237.23 343.51L236.86 343.2L236.5 342.95L236.16 342.75L235.96 342.66L235.75 342.57L235.55 342.48L235.36 342.38L235.16 342.27L234.97 342.16L234.79 342.05L234.6 341.93L234.42 341.81L234.25 341.68L234.08 341.56L233.91 341.43L233.74 341.29L233.58 341.16L233.43 341.02L233.28 340.88L233.13 340.74L232.99 340.59L232.85 340.45L232.72 340.3L232.6 340.16L232.47 340.01L232.36 339.86L232.25 339.71L232.14 339.56L232.05 339.41L231.95 339.26L231.87 339.11L231.79 338.96L231.71 338.82L231.64 338.67L231.58 338.53L231.53 338.38L231.48 338.24L231.44 338.1L231.41 337.96L231.38 337.83L231.36 337.69L231.35 337.56L231.35 337.44L231.35 337.29L231.36 337.16L231.38 337.03L231.41 336.92L231.44 336.81L231.48 336.71L231.53 336.61L231.58 336.53L231.65 336.45L231.72 336.38L231.79 336.32L231.87 336.27L231.96 336.23L232.06 336.19L232.16 336.16L232.27 336.14L232.38 336.13L232.51 336.13L232.63 336.13L232.76 336.14L232.9 336.16L233.05 336.19L233.2 336.23L233.35 336.27L233.51 336.32L233.68 336.38L233.85 336.44L234.03 336.52L234.21 336.6L234.39 336.69L234.58 336.79L234.78 336.89L234.98 337L235.19 337.12L235.39 337.25L235.61 337.38L235.83 337.53L236.05 337.67L236.27 337.83L236.5 338L237.06 338.36L237.61 338.68L238.13 338.98L238.64 339.24L239.12 339.48L239.59 339.68L240.04 339.85L240.47 340L240.87 340.11L241.26 340.2L241.63 340.26L241.97 340.29L242.29 340.3L242.59 340.28L242.86 340.24L243.11 340.17L243.33 340.08L243.53 339.97L243.71 339.83L243.86 339.67L243.98 339.5L244.07 339.3L244.14 339.08L244.18 338.84L244.19 338.59L244.18 338.31L244.13 338.02L244.05 337.71L243.95 337.39L243.81 337.05L243.64 336.7L243.44 336.33L243.21 335.95L242.94 335.56L242.64 335.15L242.31 334.73L241.94 334.3L241.54 333.87L241.1 333.42L240.63 332.96L240.35 332.7L240.08 332.43L239.81 332.15L239.55 331.85L239.29 331.55L239.05 331.23L238.81 330.89L238.57 330.55L238.34 330.2L238.12 329.83L237.91 329.45L237.7 329.06L237.5 328.65L237.31 328.24L237.12 327.81L236.94 327.38L236.77 326.93L236.6 326.47L236.44 326L236.29 325.51L236.15 325.02L236.01 324.52L235.88 324L235.75 323.48L235.64 322.94L235.53 322.39L235.43 321.83L235.33 321.27L235.25 320.69L235.17 320.1L235.09 319.5L235.03 318.89L234.97 318.27L234.92 317.64L234.88 317L234.85 316.35L234.82 315.7L234.8 315.03L234.79 314.35L234.79 313.66L234.78 313.02L234.77 312.38L234.76 311.75L234.73 311.13L234.71 310.52L234.67 309.92L234.63 309.33L234.59 308.75L234.54 308.19L234.48 307.63L234.42 307.09L234.35 306.55L234.28 306.03L234.2 305.52L234.11 305.03L234.03 304.55L233.93 304.08L233.83 303.62L233.73 303.18L233.62 302.75L233.51 302.34L233.4 301.94L233.28 301.56L233.15 301.2L233.02 300.84L232.89 300.51L232.75 300.19L232.61 299.89L232.47 299.61L232.32 299.34L232.17 299.1L232.01 298.87L231.85 298.65L231.69 298.46L231.53 298.29L231.36 298.13L231.19 298L231.01 297.89L230.84 297.79L230.66 297.72L230.41 297.61L230.17 297.51L229.94 297.42L229.73 297.32L229.53 297.23L229.34 297.14L229.17 297.05L229.01 296.97L228.86 296.88L228.72 296.8L228.6 296.72L228.49 296.64L228.39 296.56L228.31 296.49L228.24 296.41L228.18 296.34L228.14 296.26L228.1 296.19L228.08 296.11L228.08 296.04L228.08 295.97L228.1 295.89L228.14 295.82L228.18 295.74L228.24 295.67L228.31 295.59L228.39 295.52L228.49 295.44L228.6 295.36L228.72 295.28L228.86 295.2L229.01 295.11L229.17 295.03L229.34 294.94L229.53 294.85L229.73 294.76L229.94 294.66L230.17 294.57L230.41 294.46L230.66 294.36L230.81 294.29L230.97 294.21L231.12 294.12L231.27 294.02L231.43 293.91L231.58 293.79L231.73 293.66L231.88 293.52L232.03 293.37L232.17 293.21L232.32 293.04L232.46 292.87L232.6 292.68L232.74 292.49L232.87 292.3L233 292.09L233.13 291.88L233.26 291.67L233.38 291.44L233.5 291.21L233.61 290.98L233.72 290.74L233.83 290.5L233.93 290.25L234.02 290L234.12 289.75L234.2 289.49L234.28 289.23L234.36 288.96L234.43 288.7L234.5 288.43L234.55 288.16L234.61 287.89L234.65 287.61L234.69 287.34L234.73 287.07L234.75 286.79L234.77 286.52L234.78 286.24L234.79 285.97L234.79 285.68L234.8 285.39L234.82 285.09L234.86 284.81L234.89 284.52L234.94 284.24L235 283.95L235.06 283.67L235.13 283.4L235.2 283.13L235.29 282.86L235.38 282.59L235.48 282.33L235.58 282.07L235.69 281.82L235.81 281.57L235.93 281.32L236.06 281.08L236.19 280.85L236.33 280.62L236.48 280.4L236.63 280.18L236.78 279.97L236.94 279.77L237.1 279.57L237.27 279.38L237.44 279.2L237.62 279.02L237.8 278.85L237.98 278.69L238.16 278.54L238.35 278.4L238.54 278.26L238.74 278.14L238.93 278.02L239.13 277.91L239.33 277.81L239.53 277.73L239.74 277.65L239.94 277.58L240.62 277.35L241.24 277.11L241.81 276.88L242.34 276.65L242.81 276.41L243.25 276.18L243.63 275.95L243.97 275.72L244.27 275.5L244.52 275.28L244.73 275.06L244.9 274.85L245.03 274.64L245.12 274.44L245.17 274.25L245.18 274.07L245.15 273.89L245.08 273.72L244.98 273.57L244.85 273.42L244.67 273.28L244.47 273.16L244.23 273.05L243.96 272.95L243.65 272.86L243.32 272.79L242.95 272.73L242.56 272.69L242.14 272.67L241.69 272.66L241.21 272.67L240.7 272.7L240.17 272.75L239.62 272.82L239.04 272.9L238.44 273.01L237.82 273.14L237.17 273.29L236.5 273.47L235.82 273.66L235.16 273.87L234.54 274.06L233.95 274.24L233.39 274.41L232.86 274.57L232.37 274.71L231.9 274.85L231.47 274.97L231.07 275.08L230.7 275.18L230.35 275.26L230.04 275.33L229.76 275.4L229.51 275.45L229.29 275.48L229.1 275.51L228.94 275.52L228.81 275.52L228.71 275.51L228.64 275.48L228.59 275.44L228.58 275.39L228.59 275.33L228.64 275.25L228.71 275.17L228.81 275.06L228.93 274.95L229.09 274.82L229.27 274.68L229.48 274.53L229.72 274.36L229.98 274.18L230.28 273.99L230.59 273.78L230.94 273.56L231.31 273.33L231.71 273.08L232.14 272.82L232.59 272.55L233.07 272.26L233.45 272.01L233.81 271.75L234.17 271.47L234.51 271.19L234.84 270.9L235.16 270.59L235.47 270.28L235.77 269.95L236.06 269.61L236.33 269.25L236.6 268.88L236.85 268.49L237.1 268.08L237.34 267.66L237.56 267.22L237.78 266.76L237.99 266.28L238.19 265.78L238.38 265.26L238.57 264.71L238.75 264.14L238.91 263.55L239.08 262.94L239.23 262.3L239.38 261.63L239.52 260.93L239.66 260.21L239.79 259.46L239.91 258.68L240.03 257.87L240.14 257.03L240.25 256.15L240.36 255.25L240.46 254.31L240.55 253.34L240.64 252.33L240.73 251.28L240.82 250.2L240.9 249.09L240.98 247.93L241.05 246.9L241.12 245.9L241.18 244.93L241.23 243.99L241.28 243.09L241.32 242.22L241.36 241.37L241.39 240.56L241.41 239.78L241.42 239.04L241.43 238.32L241.43 237.63L241.43 236.97L241.41 236.35L241.39 235.75L241.37 235.18L241.33 234.65L241.29 234.14L241.25 233.66L241.19 233.21L241.13 232.79L241.06 232.4L240.99 232.03L240.9 231.7L240.81 231.39L240.71 231.11L240.61 230.86L240.5 230.64L240.38 230.44L240.25 230.27L240.12 230.13L239.97 230.01L239.83 229.92L239.67 229.86L239.5 229.82L239.33 229.81L239.15 229.83L238.97 229.87L238.77 229.94L238.57 230.03L238.41 230.11L238.26 230.18L238.11 230.25L237.96 230.31L237.81 230.37L237.67 230.42L237.52 230.47L237.38 230.5L237.24 230.54L237.11 230.56L236.97 230.58L236.84 230.6L236.71 230.61L236.59 230.61L236.46 230.61L236.35 230.6L236.23 230.59L236.12 230.57L236.01 230.55L235.9 230.52L235.8 230.48L235.7 230.45L235.61 230.4L235.52 230.35L235.44 230.3L235.36 230.24L235.28 230.17L235.21 230.1L235.15 230.03L235.09 229.95L235.03 229.87L234.98 229.78L234.94 229.69L234.9 229.59L234.86 229.49L234.84 229.38L234.81 229.27L234.8 229.15L234.79 229.03L234.79 228.91L234.8 228.79L234.84 228.66L234.91 228.55L235.01 228.43L235.13 228.32L235.27 228.21L235.43 228.1L235.62 227.99L235.82 227.89L236.04 227.79L236.28 227.69L236.53 227.6L236.8 227.5L237.07 227.41L237.36 227.32L237.66 227.23L237.96 227.14L238.27 227.05L238.59 226.97L238.91 226.88L239.24 226.8L239.56 226.72L239.89 226.63L240.21 226.55L240.53 226.47L240.85 226.39L241.16 226.31L241.46 226.24L241.75 226.16L242.04 226.08L242.32 226L242.58 225.92L242.83 225.84L243.06 225.76L243.28 225.68L243.48 225.6L243.66 225.52L243.82 225.44L243.96 225.36L244.07 225.27L244.08 225.23L244.04 225.15L243.96 225.04L243.83 224.89L243.66 224.7L243.44 224.47L243.17 224.21L242.87 223.92L242.51 223.58L242.11 223.21L241.67 222.81L241.18 222.36L240.65 221.89L240.07 221.37L239.44 220.82L238.77 220.23L238.06 219.61L237.3 218.94L236.5 218.25L235.65 217.51L234.75 216.74L233.81 215.94L232.83 215.09L231.8 214.21L230.72 213.3L229.6 212.35L228.44 211.36L227.22 210.33L225.97 209.27L224.67 208.17L223.32 207.04L221.93 205.87L220.5 204.66L219.02 203.42L217.49 202.14L215.92 200.82L214.3 199.47L212.64 198.08L210.93 196.65L209.18 195.19L206.53 193.09L203.94 191.04L201.43 189.05L198.98 187.13L196.61 185.26L194.31 183.45L192.07 181.71L189.91 180.02L187.82 178.39L185.79 176.83L183.84 175.32L181.96 173.87L180.15 172.48L178.4 171.15L176.73 169.88L175.13 168.67L173.6 167.52L172.14 166.44L170.74 165.41L169.42 164.44L168.17 163.53L166.99 162.67L165.88 161.88L164.84 161.15L163.87 160.48L162.97 159.87L162.14 159.32L161.38 158.83L160.69 158.39L160.07 158.02L159.52 157.71L159.04 157.46L158.63 157.26L158.3 157.13L158.03 157.06L157.83 157.04L157.7 157.09L157.64 157.19L157.66 157.36L157.74 157.58L157.84 157.75L157.95 157.92L158.05 158.08L158.16 158.25L158.27 158.41L158.38 158.57L158.49 158.72L158.6 158.88L158.71 159.03L158.82 159.18L158.94 159.33L159.05 159.48L159.16 159.62L159.28 159.76L159.39 159.9L159.51 160.03L159.63 160.16L159.74 160.28L159.86 160.4L159.97 160.52L160.09 160.64L160.21 160.74L160.32 160.85L160.44 160.95L160.55 161.04L160.67 161.13L160.78 161.22L160.9 161.3L161.01 161.37L161.12 161.44L161.24 161.5L161.35 161.56L161.46 161.61L161.57 161.65L161.68 161.69L161.79 161.72L161.89 161.75L162 161.77L162.11 161.78L162.21 161.78L162.29 161.8L162.36 161.87L162.44 161.98L162.51 162.14L162.58 162.34L162.65 162.58L162.72 162.86L162.78 163.18L162.85 163.54L162.91 163.94L162.97 164.37L163.03 164.84L163.08 165.34L163.14 165.88L163.19 166.46L163.24 167.06L163.29 167.7L163.33 168.36L163.37 169.06L163.41 169.79L163.45 170.54L163.49 171.32L163.52 172.13L163.55 172.96L163.57 173.81L163.6 174.69L163.62 175.59L163.63 176.51L163.65 177.46L163.66 178.42L163.67 179.4L163.67 180.4L163.67 181.41L163.67 182.44L163.67 183.49L163.66 184.55L163.65 185.62L163.63 186.71L163.61 187.81L163.59 188.91L163.53 190.07L163.48 191.27L163.43 192.52L163.38 193.82L163.33 195.15L163.28 196.52L163.23 197.93L163.18 199.38L163.12 200.85L163.07 202.36L163.02 203.9L162.98 205.46L162.93 207.05L162.88 208.66L162.83 210.28L162.78 211.93L162.73 213.6L162.69 215.28L162.64 216.97L162.6 218.67L162.55 220.37L162.51 222.09L162.46 223.81L162.42 225.52L162.38 227.24L162.34 228.96L162.3 230.67L162.26 232.38L162.22 234.07L162.18 235.76L162.15 237.43L162.11 239.09L162.08 240.73L162.04 242.35L162.01 243.95L161.98 245.53L161.95 247.08L161.92 248.61L161.89 250.1L161.87 251.57L160.83 287.09L160.77 288.46L160.7 289.8L160.64 291.12L160.58 292.43L160.55 293.02L160.56 293.03L160.78 293.22L160.99 293.41L161.2 293.61L161.42 293.81L161.64 294.02L161.85 294.24L162.07 294.46L162.29 294.68L162.51 294.92L162.72 295.15L162.94 295.39L163.16 295.63L163.37 295.88L163.58 296.13L163.79 296.38L164 296.64L164.2 296.9L164.4 297.16L164.6 297.42L164.8 297.69L164.99 297.95L165.17 298.22L165.36 298.49L165.53 298.76L165.71 299.03L165.87 299.3L166.04 299.57L166.19 299.84L166.34 300.11L166.49 300.38L166.62 300.65L166.75 300.92L166.88 301.18L166.99 301.44L167.1 301.7L167.2 301.96L167.29 302.22L167.37 302.47L167.41 302.76L167.41 303.13L167.4 303.57L167.35 304.08L167.28 304.64L167.19 305.27L167.08 305.94L166.95 306.67L166.8 307.43L166.63 308.23L166.44 309.06L166.24 309.92L166.03 310.81L165.8 311.71L165.57 312.62L165.32 313.54L165.07 314.46L164.81 315.38L164.54 316.29L164.27 317.19L164 318.07L163.73 318.93L163.46 319.76L163.18 320.56L162.91 321.32L162.65 322.04L162.39 322.72L162.14 323.34L162.13 323.37L162.16 323.97L162.19 324.86L162.22 325.72L162.23 326.54L162.24 327.33L162.25 328.08L162.24 328.81L162.23 329.5L162.21 330.16L162.18 330.79L162.14 331.39L162.09 331.95L162.04 332.49L161.97 333L161.9 333.49L161.82 333.94L161.73 334.37L161.64 334.77L161.53 335.14L161.42 335.49L161.3 335.81L161.17 336.11L161.03 336.39L160.88 336.64L160.72 336.86L160.56 337.07L160.39 337.25L160.2 337.41L160.01 337.55L159.81 337.67L159.6 337.77L159.39 337.86L159.16 337.92L158.92 337.96L158.68 337.99L158.43 338L158.17 338.02L157.96 338.04L157.68 335.67L157.18 331.07L156.69 326.34L156.23 321.48L155.8 316.5L155.39 311.38L155 306.15L154.64 300.78L154.3 295.29L153.98 289.67L153.69 283.92L153.43 278.05L153.18 272.05L152.97 265.92L152.77 259.67L152.6 253.29L152.45 246.78L152.33 240.15L152.23 233.39L152.23 121.78L167.71 123.46L170.04 123.7ZM251.86 336.42L251.95 336.46L252.04 336.51L252.11 336.54L252.18 336.58L252.23 336.61L252.27 336.63L252.3 336.65L252.32 336.66L252.32 336.66L252.31 336.66L252.28 336.65L252.24 336.63L252.18 336.6L252.11 336.57L252.02 336.52L251.91 336.46L251.78 336.4L251.64 336.32L251.75 336.37L251.86 336.42ZM155.8 290.62L155.75 290.66L155.72 290.72L155.7 290.8L155.69 290.89L155.7 291L155.72 291.12L155.75 291.26L155.8 291.42L155.86 291.59L155.94 291.78L156.03 291.99L156.13 292.21L156.24 292.45L156.37 292.71L156.51 292.99L156.66 293.28L156.83 293.59L157 293.92L157.19 294.27L157.39 294.64L157.52 294.89L157.65 295.16L157.79 295.46L157.92 295.79L158.05 296.15L158.19 296.53L158.32 296.93L158.45 297.36L158.59 297.81L158.72 298.29L158.86 298.78L158.99 299.3L159.12 299.83L159.25 300.39L159.38 300.96L159.51 301.56L159.64 302.16L159.77 302.79L159.89 303.43L160.02 304.08L160.11 304.61L160.09 305.33L160.06 306.37L160.04 307.39L160.01 308.39L159.99 309.37L159.97 310.33L159.96 311.27L159.94 312.18L159.93 313.08L159.93 313.95L159.92 314.8L159.92 315.63L159.92 316.44L159.92 317.22L159.92 317.99L159.93 318.73L159.94 319.45L159.95 320.15L159.97 320.83L159.99 321.49L160.01 322.12L160.03 322.74L160.05 323.33L160.08 323.9L160.11 324.45L160.15 324.98L160.21 325.36L160.3 325.63L160.4 325.8L160.53 325.87L160.68 325.83L160.85 325.71L161.03 325.5L161.23 325.22L161.44 324.85L161.66 324.41L161.9 323.91L162.13 323.37L162.11 323.04L162.06 322.08L162 321.08L161.94 320.05L161.87 318.98L161.81 318.2L161.75 317.42L161.69 316.64L161.62 315.86L161.55 315.08L161.47 314.31L161.39 313.54L161.3 312.77L161.21 312L161.12 311.24L161.02 310.49L160.92 309.74L160.82 309L160.71 308.26L160.6 307.54L160.49 306.83L160.37 306.12L160.26 305.43L160.14 304.75L160.11 304.61L160.12 304.26L160.16 303.17L160.19 302.07L160.23 300.94L160.27 299.78L160.32 298.61L160.37 297.42L160.42 296.2L160.47 294.96L160.52 293.71L160.55 293.02L160.35 292.85L160.15 292.68L159.77 292.46L159.41 292.25L159.07 292.04L158.74 291.85L158.43 291.68L158.14 291.51L157.87 291.36L157.61 291.22L157.37 291.1L157.15 290.98L156.95 290.88L156.76 290.8L156.58 290.73L156.42 290.67L156.28 290.62L156.16 290.59L156.04 290.58L155.95 290.58L155.87 290.59L155.8 290.62ZM242.48 282.4L242.35 284.85L242.48 287.3L242.83 288.73L243.37 289.06L244.07 288.21L244.46 286.68L244.59 284.82L244.46 282.9L244.07 281.22L243.37 280.52L242.83 280.94L242.48 282.4ZM216.88 129.4L215.73 129.49L214.58 129.62L213.44 129.77L212.3 129.94L211.18 130.14L210.06 130.35L208.97 130.58L207.89 130.82L206.84 131.08L205.81 131.34L204.81 131.61L203.84 131.88L202.9 132.15L202 132.43L201.14 132.7L200.33 132.96L199.56 133.21L198.84 133.46L198.17 133.69L197.56 133.9L197 134.1L196.51 134.27L196.08 134.42L195.72 134.55L195.42 134.65L195.16 134.74L194.9 134.83L194.63 134.92L194.35 135.02L194.08 135.12L193.8 135.23L193.52 135.33L193.24 135.44L192.96 135.55L192.68 135.65L192.4 135.76L192.13 135.87L191.86 135.97L191.59 136.07L191.33 136.17L191.07 136.27L190.82 136.36L190.58 136.45L190.35 136.53L190.12 136.61L189.91 136.68L189.7 136.74L189.51 136.8L189.33 136.84L189.16 136.88L189.01 136.91L188.86 136.93L188.74 136.94L188.63 136.94L188.54 136.93L188.46 136.91L188.4 136.87L188.37 136.82L188.35 136.75L188.35 136.68L188.37 136.58L188.42 136.47L188.49 136.35L188.58 136.21L188.69 136.05L188.82 135.88L188.93 135.73L189.03 135.58L189.13 135.43L189.21 135.3L189.28 135.17L189.34 135.05L189.4 134.94L189.44 134.83L189.47 134.73L189.49 134.63L189.5 134.55L189.5 134.47L189.49 134.39L189.47 134.33L189.44 134.27L189.4 134.21L189.34 134.17L189.28 134.12L189.21 134.09L189.13 134.06L189.03 134.04L188.93 134.02L188.82 134.01L188.69 134.01L188.56 134.01L188.42 134.02L188.26 134.03L188.1 134.05L187.92 134.08L187.73 134.11L187.54 134.15L187.33 134.19L187.12 134.24L186.89 134.3L186.65 134.36L186.4 134.42L186.15 134.49L185.88 134.57L185.6 134.65L185.34 134.71L185.09 134.77L184.84 134.82L184.6 134.87L184.36 134.91L184.13 134.95L183.9 134.99L183.67 135.02L183.45 135.05L183.23 135.07L183.02 135.09L182.82 135.1L182.62 135.11L182.43 135.12L182.24 135.12L182.05 135.12L181.88 135.11L181.71 135.1L181.54 135.09L181.39 135.07L181.23 135.05L181.09 135.02L180.95 134.99L180.82 134.95L180.69 134.91L180.58 134.87L180.47 134.82L180.36 134.77L180.27 134.71L180.18 134.65L180.1 134.58L180.03 134.51L179.97 134.44L179.91 134.36L179.86 134.28L179.82 134.2L179.79 134.11L179.77 134.01L179.76 133.91L179.75 133.81L179.72 133.56L179.63 133.33L179.48 133.1L179.28 132.89L179.03 132.68L178.73 132.49L178.38 132.31L177.99 132.14L177.57 131.98L177.11 131.83L176.61 131.69L176.09 131.57L175.54 131.45L174.97 131.35L174.38 131.26L173.77 131.18L173.15 131.11L172.52 131.05L171.88 131.01L171.24 130.98L170.59 130.96L169.95 130.95L169.31 130.95L168.68 130.97L168.06 131L167.46 131.04L166.87 131.09L166.3 131.16L165.76 131.24L165.24 131.33L164.75 131.44L164.3 131.55L163.88 131.68L163.5 131.83L163.16 131.99L162.87 132.16L162.62 132.34L162.43 132.54L162.29 132.75L162.21 132.97L162.18 133.36L162.26 133.84L162.43 134.39L162.71 135.03L163.09 135.76L163.56 136.57L164.14 137.46L164.82 138.43L165.6 139.49L166.49 140.63L167.47 141.85L168.56 143.16L169.74 144.55L171.03 146.02L172.42 147.58L173.9 149.22L175.49 150.94L177.18 152.74L178.98 154.63L180.87 156.61L182.86 158.66L184.96 160.8L187.15 163.02L189.45 165.33L191.85 167.72L194.35 170.19L196.95 172.74L199.65 175.38L202.45 178.1L205.36 180.91L208.36 183.79L211.46 186.76L214.67 189.82L217.98 192.96L221.39 196.18L224.9 199.48L228.51 202.87L232.22 206.34L236.03 209.89L239.94 213.53L240.98 202.9L241.12 201.54L241.28 200.11L241.46 198.62L241.66 197.07L241.88 195.46L242.1 193.8L242.32 192.09L242.56 190.34L242.79 188.54L243.01 186.7L243.23 184.83L243.45 182.93L243.64 181L243.83 179.05L243.99 177.08L244.13 175.1L244.24 173.11L244.33 171.1L244.38 169.1L244.4 167.09L244.38 165.09L244.32 163.1L244.21 161.12L244.05 159.16L243.84 157.21L243.58 155.29L243.26 153.39L242.88 151.53L242.43 149.7L241.92 147.91L241.33 146.16L240.67 144.46L239.94 142.81L239.12 141.21L238.22 139.67L237.23 138.19L236.15 136.78L234.98 135.43L233.71 134.16L232.35 132.97L231.52 132.35L230.66 131.8L229.76 131.31L228.81 130.88L227.84 130.51L226.83 130.19L225.8 129.92L224.74 129.71L223.66 129.54L222.56 129.42L221.45 129.34L220.32 129.3L219.18 129.3L218.03 129.33L216.88 129.4Z" id="g4M828lA5A"></path><path d="M270.41 209.19C269.5 209.45 264.91 210.76 256.66 213.11C256.04 244.32 255.69 261.67 255.62 265.14C254.94 315.2 259.41 319.12 260.44 312.69C263.88 287.51 328.89 271.57 369.13 286.11C384.61 291.43 413.16 310.17 413.16 314.92C413.16 316.04 411.44 322.2 413.16 320.24C415.22 317.44 418.32 318.28 427.26 323.31C434.83 327.51 438.96 328.63 439.99 326.39C440.68 324.43 444.11 323.03 447.9 323.03C451.34 323.03 454.43 321.64 454.43 320.24C454.43 318.56 451.34 317.44 447.55 317.44C442.05 317.44 420.04 321.08 420.04 314.64C420.04 312.96 421.76 311.85 423.82 311.85C425.88 311.85 413.16 309.33 413.85 304.85C414.53 301.78 413.16 299.26 410.75 299.26C408.34 299.26 404.22 296.74 401.46 293.67C398.37 290.59 395.96 289.19 395.96 290.31C395.96 291.43 392.52 289.75 388.39 286.67C380.48 280.8 348.84 271.85 336.11 272.13C323.73 272.13 295.87 278.28 281.42 283.88C265.6 290.31 261.82 290.59 261.82 286.39C261.82 284.99 261.82 270.73 261.82 252.55C261.82 232.41 262.85 225.14 266.29 225.14C269.04 225.14 269.04 224.3 265.6 222.62C254.59 217.03 300.34 207.52 337.49 208.07C371.54 208.35 408 217.86 432.42 232.69C438.27 236.05 444.11 238.28 445.15 237.16C446.52 236.33 447.55 236.61 447.55 238C447.55 239.68 450.65 244.72 452.03 244.72C454.09 244.72 468.88 256.46 479.89 267.09C488.83 275.48 503.28 298.14 508.09 310.45C511.87 321.08 511.87 323.03 507.75 323.03C505.34 323.03 502.24 321.36 501.56 319.4C500.18 317.44 499.49 317.72 499.49 320.52C499.15 323.59 495.36 325.55 487.11 326.39C480.57 326.95 475.07 326.39 475.07 325.27C475.07 324.15 473.01 317.16 466.82 322.75C463.03 326.11 458.22 327.23 452.03 326.39C445.83 325.55 443.77 326.11 445.49 328.35C447.21 330.31 460.97 331.43 485.05 331.43C487.5 331.43 499.77 331.43 521.85 331.43C518.35 328.07 515.68 326.39 513.85 326.39C512.47 326.39 518.07 321.92 517.72 317.44C517.38 312.69 511.53 299.26 504.31 287.51C481.61 250.03 436.2 219.26 386.33 207.24C362.6 201.64 323.38 199.68 301.37 202.76C292.08 204.16 277.98 206.96 270.41 209.19Z" id="a45hEa8OLw"></path><path d="" id="b4aLqq7ybM"></path></defs><g><g><g><use xlink:href="#g4M828lA5A" opacity="1" fill="#ffffff" fill-opacity="1"></use><g><use xlink:href="#g4M828lA5A" opacity="1" fill-opacity="0" stroke="#000000" stroke-width="1" stroke-opacity="0"></use></g></g><g><use xlink:href="#a45hEa8OLw" opacity="1" fill="#ffffff" fill-opacity="1"></use><g><use xlink:href="#a45hEa8OLw" opacity="1" fill-opacity="0" stroke="#000000" stroke-width="1" stroke-opacity="0"></use></g></g><g><g><use xlink:href="#b4aLqq7ybM" opacity="1" fill-opacity="0" stroke="#000000" stroke-width="1" stroke-opacity="1"></use></g></g></g></g></svg>